<svg data-v-adffe394="" tabindex="0" role="radio" aria-checked="false" aria-label="Switch to night mode" data-theme-id="dark-theme" width="14" height="14" fill="none" xmlns="http://www.w3.org/2000/svg" ><path data-v-adffe394="" stroke="none" d="M13.2 8.01a6.409 6.409 0 0 1-1.554.194c-3.235 0-5.823-2.577-5.823-5.797 0-.515.065-1.03.194-1.546.065-.193 0-.45-.194-.644C5.63.024 5.435-.04 5.176.024 2.136.926 0 3.76 0 6.915 0 10.845 3.17 14 7.117 14c3.17 0 6.018-2.125 6.859-5.217.064-.193 0-.45-.194-.644-.13-.129-.389-.193-.583-.129z"></path></svg>